<?xml version="1.0" encoding="utf-8"?>
<!-- Generator: Adobe Illustrator 16.0.3, SVG Export Plug-In . SVG Version: 6.00 Build 0)  -->
<!DOCTYPE svg PUBLIC "-//W3C//DTD SVG 1.1//EN" "http://www.w3.org/Graphics/SVG/1.1/DTD/svg11.dtd">
<svg version="1.1" xmlns="http://www.w3.org/2000/svg" xmlns:xlink="http://www.w3.org/1999/xlink" x="0px" y="0px"
	 width="54.667px" height="55.334px" viewBox="0 0 54.667 55.334" enable-background="new 0 0 54.667 55.334" xml:space="preserve">
<g id="Hintergrund_1">
	<path fill-rule="evenodd" clip-rule="evenodd" fill="#003399" d="M1.94,27.939C1.94,13.92,13.3,2.56,27.319,2.56
		C41.34,2.56,52.7,13.92,52.7,27.939c0,14.021-11.36,25.38-25.381,25.38C13.3,53.319,1.94,41.96,1.94,27.939z"/>
</g>
<g id="Text_aussen">
	<g>
		<path fill-rule="evenodd" clip-rule="evenodd" fill="#FFFFFF" d="M16.29,9.46c0.09-0.09,0.15-0.17,0.17-0.27
			c0.02-0.09,0.01-0.18-0.02-0.26c-0.01-0.02-0.02-0.04-0.02-0.06c-0.01-0.01-0.02-0.03-0.03-0.04c-0.07-0.13-0.15-0.2-0.23-0.24
			c-0.09-0.03-0.2-0.01-0.33,0.05l-0.39,0.22l0.45,0.78l0.38-0.22L16.29,9.46z M16.57,10.84L17,10.57c0.11-0.06,0.18-0.14,0.22-0.24
			c0.04-0.1,0.01-0.23-0.08-0.39c-0.09-0.17-0.19-0.26-0.29-0.27c-0.11-0.02-0.23,0.01-0.36,0.09l-0.4,0.22l0.51,0.87L16.57,10.84z
			 M16.37,11.33l-1.48-2.58l0.71-0.41c0.02-0.01,0.04-0.02,0.06-0.02c0.02-0.01,0.04-0.02,0.06-0.04c0.18-0.08,0.36-0.11,0.56-0.09
			c0.2,0.02,0.37,0.16,0.51,0.41c0.1,0.17,0.13,0.32,0.1,0.45c-0.04,0.14-0.09,0.23-0.17,0.29c0.17-0.08,0.33-0.08,0.45,0
			c0.13,0.08,0.24,0.2,0.33,0.35c0.14,0.24,0.19,0.46,0.14,0.68c-0.04,0.21-0.2,0.4-0.48,0.56l-0.72,0.38L16.37,11.33z"/>
		<polygon fill-rule="evenodd" clip-rule="evenodd" fill="#FFFFFF" points="18.4,10.19 17.15,7.5 18.6,6.82 18.77,7.18 17.71,7.68 
			18.06,8.44 19.04,7.98 19.21,8.34 18.23,8.8 18.65,9.7 19.68,9.22 19.85,9.57 18.51,10.2 		"/>
		<path fill-rule="evenodd" clip-rule="evenodd" fill="#FFFFFF" d="M20.38,7.62l0.44-0.16c0.18-0.05,0.29-0.12,0.35-0.22
			c0.05-0.1,0.06-0.22,0.01-0.36l-0.02-0.07c-0.06-0.14-0.13-0.23-0.23-0.26c-0.1-0.03-0.23-0.02-0.4,0.03L20.12,6.7l0.29,0.93
			L20.38,7.62z M20.46,9.29l-0.87-2.85l0.88-0.26c0.02-0.01,0.04-0.01,0.06-0.02c0.01,0,0.04-0.01,0.06-0.01
			c0.18-0.05,0.36-0.05,0.55,0c0.19,0.05,0.34,0.21,0.46,0.5l0.02,0.05c0.05,0.17,0.04,0.33-0.02,0.48
			c-0.07,0.14-0.15,0.25-0.26,0.32c-0.01,0.01-0.03,0.02-0.05,0.03c-0.01,0.01-0.03,0-0.06-0.02c0-0.03,0.01-0.05,0.01-0.05h0.02
			c0.03,0,0.05-0.01,0.09-0.01c0.03,0,0.07,0,0.11,0c0.06,0.01,0.12,0.03,0.19,0.06c0.07,0.03,0.12,0.1,0.18,0.2
			c0.02,0.05,0.04,0.11,0.07,0.19l0.09,0.22c0.06,0.14,0.11,0.25,0.16,0.35c0.06,0.1,0.09,0.15,0.1,0.14l0.07-0.03l0.05,0.17
			l-0.46,0.14c-0.07-0.07-0.12-0.15-0.16-0.24c-0.04-0.09-0.07-0.18-0.11-0.27V8.37c0-0.01-0.01-0.01-0.01-0.02
			c-0.06-0.18-0.13-0.32-0.2-0.44c-0.08-0.12-0.21-0.16-0.4-0.1l-0.52,0.16l0.38,1.23l-0.33,0.1L20.46,9.29z"/>
		<path fill-rule="evenodd" clip-rule="evenodd" fill="#FFFFFF" d="M22.6,7.16c0-0.01,0-0.03,0-0.04c0-0.02-0.01-0.04-0.01-0.06
			l-0.04-0.27c-0.01-0.11-0.02-0.22-0.02-0.34c0-0.22,0.05-0.43,0.15-0.65c0.1-0.21,0.3-0.34,0.62-0.4l0.04-0.01
			c0.27-0.04,0.49,0,0.68,0.13c0.181,0.13,0.3,0.31,0.341,0.54l0.02,0.14l-0.4,0.07V6.25l-0.01-0.03c-0.02-0.14-0.08-0.26-0.18-0.36
			c-0.09-0.1-0.22-0.13-0.38-0.1c-0.21,0.03-0.33,0.14-0.39,0.31c-0.05,0.18-0.07,0.37-0.05,0.58c0,0.06,0.01,0.13,0.02,0.18
			c0.01,0.06,0.02,0.13,0.03,0.2c0.01,0.08,0.03,0.16,0.04,0.23c0.02,0.07,0.04,0.15,0.06,0.23c0.05,0.18,0.13,0.34,0.23,0.47
			c0.1,0.14,0.23,0.19,0.41,0.16l0,0V8.11h0.03h0.01c0.24-0.06,0.37-0.18,0.39-0.36c0.03-0.18,0.021-0.38-0.02-0.6l-0.63,0.12
			l-0.08-0.42l1.06-0.19l0.291,1.63l-0.33,0.06L24.399,7.9c0.021,0.16-0.029,0.29-0.14,0.4c-0.11,0.1-0.26,0.17-0.43,0.2
			c-0.36,0.06-0.62-0.03-0.8-0.26C22.84,8,22.7,7.65,22.61,7.17L22.6,7.16z"/>
		<polygon fill-rule="evenodd" clip-rule="evenodd" fill="#FFFFFF" points="25.54,8.18 25.439,5.21 26.91,5.15 26.931,5.55 
			25.88,5.59 25.91,6.43 26.89,6.39 26.91,6.79 25.92,6.82 25.97,8.21 25.63,8.22 		"/>
		<path fill-rule="evenodd" clip-rule="evenodd" fill="#FFFFFF" d="M28.75,4.58h0.36L29.09,5.06l-0.43-0.02l0.029-0.44L28.75,4.58z
			 M28.17,4.55h0.36L28.51,5.03l-0.44-0.02l0.03-0.44L28.17,4.55z M27.7,5.18l0.36-0.01l-0.11,2.14c-0.011,0.22,0.03,0.37,0.11,0.45
			c0.089,0.07,0.209,0.12,0.379,0.13c0.181,0.01,0.311-0.04,0.4-0.13c0.08-0.09,0.12-0.24,0.141-0.45l0.1-2.08l0.439,0.02
			l-0.12,2.26c0,0.05-0.01,0.1-0.02,0.15c-0.01,0.06-0.02,0.1-0.03,0.14c-0.06,0.14-0.149,0.26-0.28,0.36
			c-0.139,0.09-0.35,0.14-0.619,0.12c-0.41-0.02-0.66-0.12-0.78-0.29c-0.109-0.17-0.16-0.4-0.15-0.69l0.11-2.11L27.7,5.18z"/>
		<polygon fill-rule="evenodd" clip-rule="evenodd" fill="#FFFFFF" points="30.09,8.31 30.71,5.4 31.1,5.48 30.85,6.66 31.88,6.88 
			32.13,5.7 32.52,5.78 31.89,8.74 31.5,8.65 31.79,7.26 30.76,7.04 30.47,8.43 30.17,8.37 		"/>
		<path fill-rule="evenodd" clip-rule="evenodd" fill="#FFFFFF" d="M33.64,7.49l0.45,0.14c0.17,0.06,0.31,0.06,0.41,0.02
			c0.1-0.05,0.181-0.14,0.22-0.28l0.03-0.07c0.03-0.15,0.02-0.26-0.04-0.35c-0.061-0.08-0.17-0.16-0.34-0.21l-0.4-0.14l-0.31,0.92
			L33.64,7.49z M32.73,8.89l0.97-2.81l0.86,0.3c0.02,0.01,0.039,0.01,0.05,0.02c0.02,0.01,0.039,0.02,0.07,0.03
			C34.85,6.5,35,6.6,35.12,6.75c0.13,0.15,0.149,0.38,0.08,0.68l-0.02,0.04c-0.061,0.17-0.161,0.3-0.291,0.38
			c-0.14,0.08-0.27,0.12-0.399,0.11c-0.021,0-0.04,0-0.051,0c-0.02-0.01-0.04-0.03-0.05-0.06c0.021-0.02,0.041-0.03,0.041-0.03
			l0.02,0.02c0.02,0,0.04,0.02,0.069,0.04c0.03,0.01,0.061,0.04,0.091,0.06c0.039,0.04,0.09,0.09,0.12,0.16
			c0.039,0.07,0.039,0.16,0.029,0.27c-0.01,0.05-0.029,0.11-0.05,0.19l-0.061,0.24c-0.039,0.14-0.06,0.26-0.069,0.38
			c-0.02,0.11-0.02,0.16-0.011,0.17l0.07,0.01l-0.06,0.17l-0.45-0.16c-0.01-0.1-0.01-0.19,0.01-0.29c0.021-0.09,0.05-0.18,0.08-0.28
			V8.84c0,0,0-0.01,0-0.02c0.061-0.18,0.091-0.34,0.1-0.48C34.33,8.2,34.24,8.1,34.061,8.03L33.54,7.85l-0.42,1.22L32.8,8.96
			L32.73,8.89z"/>
		<polygon fill-rule="evenodd" clip-rule="evenodd" fill="#FFFFFF" points="35.13,9.78 36.39,7.09 37.84,7.76 37.681,8.12 
			36.61,7.63 36.26,8.39 37.24,8.85 37.069,9.21 36.09,8.75 35.67,9.65 36.7,10.13 36.54,10.49 35.2,9.86 		"/>
		<path fill-rule="evenodd" clip-rule="evenodd" fill="#FFFFFF" d="M38.35,9.63l0.41,0.23c0.15,0.1,0.28,0.14,0.39,0.11
			c0.11-0.02,0.2-0.09,0.281-0.21l0.039-0.07c0.07-0.13,0.08-0.25,0.04-0.34c-0.04-0.1-0.13-0.2-0.279-0.29l-0.36-0.22l-0.51,0.82
			L38.35,9.63z M37.14,10.79l1.58-2.52l0.78,0.48c0.01,0.02,0.02,0.03,0.04,0.04c0.021,0.01,0.029,0.02,0.05,0.04
			c0.16,0.1,0.28,0.24,0.37,0.41c0.08,0.18,0.06,0.4-0.08,0.68l-0.03,0.04c-0.09,0.15-0.22,0.25-0.369,0.3
			c-0.15,0.05-0.291,0.05-0.411,0.02c-0.02,0-0.039-0.01-0.05-0.02c-0.02,0-0.029-0.03-0.029-0.06c0.02-0.02,0.04-0.02,0.04-0.02
			l0.02,0.02c0.011,0.01,0.03,0.03,0.061,0.05c0.029,0.03,0.05,0.06,0.07,0.09c0.029,0.05,0.06,0.11,0.079,0.18
			c0.021,0.07,0.01,0.16-0.029,0.26c-0.03,0.05-0.061,0.11-0.091,0.18l-0.12,0.22c-0.06,0.13-0.109,0.25-0.149,0.35
			c-0.04,0.11-0.06,0.16-0.051,0.17l0.07,0.02l-0.09,0.16l-0.41-0.26c0.01-0.1,0.041-0.19,0.08-0.28c0.04-0.08,0.08-0.17,0.141-0.26
			l0,0c0-0.01,0-0.02,0.01-0.02c0.09-0.16,0.16-0.31,0.199-0.45c0.041-0.14-0.02-0.26-0.189-0.36l-0.46-0.29l-0.689,1.1l-0.28-0.18
			L37.14,10.79z"/>
	</g>
	<g>
		<polygon fill-rule="evenodd" clip-rule="evenodd" fill="#FFFFFF" points="10.47,12.46 12.79,14.33 12.35,14.87 10.21,13.87 
			9.92,13.65 10.19,13.9 11.61,15.78 11.19,16.3 8.84,14.4 9.1,14.09 11.23,15.82 9.49,13.6 9.77,13.25 12.3,14.49 10.17,12.76 
			10.38,12.5 		"/>
		<path fill-rule="evenodd" clip-rule="evenodd" fill="#FFFFFF" d="M9.51,16.31c-0.07,0.03-0.12,0.04-0.14,0.03l-0.08-0.05
			l-0.18-0.1c-0.08-0.05-0.17-0.09-0.28-0.13c-0.14-0.05-0.28-0.08-0.43-0.08s-0.27,0.07-0.36,0.22l0,0c0-0.01,0-0.01,0,0v0.01
			l-0.01,0.01c0-0.01,0.01-0.01,0.01,0H8.03C7.92,16.42,7.9,16.59,8,16.74c0.1,0.14,0.23,0.26,0.39,0.37
			c0.02,0.02,0.05,0.03,0.07,0.05l0.07,0.04l0.28,0.17c0.26,0.16,0.51,0.26,0.73,0.32c0.23,0.06,0.41-0.03,0.55-0.26
			c0.1-0.17,0.1-0.34-0.02-0.5c-0.11-0.16-0.26-0.31-0.45-0.44c-0.03-0.02-0.06-0.04-0.09-0.06c-0.03-0.02-0.06-0.06-0.09-0.11
			L9.51,16.31z M9.65,16c0.01,0.01,0.03,0.02,0.05,0.03c0.02,0.02,0.04,0.03,0.06,0.05c0.06,0.03,0.13,0.08,0.2,0.13
			c0.08,0.05,0.15,0.11,0.21,0.16c0.17,0.14,0.29,0.32,0.37,0.53c0.09,0.21,0.04,0.47-0.14,0.78c-0.19,0.32-0.43,0.47-0.72,0.46
			c-0.29-0.01-0.57-0.09-0.84-0.22c-0.05-0.03-0.11-0.06-0.16-0.09c-0.06-0.03-0.11-0.06-0.14-0.08l-0.07-0.04
			c-0.06-0.04-0.14-0.09-0.23-0.15c-0.09-0.06-0.17-0.12-0.25-0.18c-0.18-0.16-0.31-0.35-0.4-0.57c-0.09-0.22-0.04-0.47,0.13-0.76
			c0.22-0.36,0.49-0.53,0.81-0.49c0.32,0.04,0.69,0.18,1.11,0.43L9.65,16z"/>
		<path fill-rule="evenodd" clip-rule="evenodd" fill="#FFFFFF" d="M9.52,19.13l-0.13,0.34L7.43,18.6c-0.2-0.09-0.35-0.11-0.45-0.06
			c-0.1,0.06-0.19,0.16-0.25,0.3c-0.08,0.17-0.09,0.31-0.03,0.42c0.06,0.11,0.18,0.21,0.37,0.29l1.91,0.85L8.8,20.8l-2.07-0.92
			c-0.04-0.02-0.09-0.04-0.13-0.07c-0.05-0.03-0.09-0.06-0.12-0.09c-0.11-0.09-0.19-0.22-0.23-0.38c-0.04-0.16-0.01-0.37,0.11-0.63
			c0.16-0.36,0.34-0.57,0.55-0.61c0.2-0.05,0.43-0.01,0.69,0.1l1.93,0.86L9.52,19.13z"/>
		<polygon fill-rule="evenodd" clip-rule="evenodd" fill="#FFFFFF" points="5.76,20.58 8.6,21.45 8.42,22.05 5.63,22.09 8.17,22.86 
			8.04,23.28 5.16,22.4 5.34,21.79 8.16,21.76 5.59,20.97 5.69,20.65 		"/>
		<polygon fill-rule="evenodd" clip-rule="evenodd" fill="#FFFFFF" points="7.96,23.76 7.65,25.61 7.23,25.53 7.36,24.8 4.81,24.35 
			4.88,23.93 7.43,24.37 7.57,23.62 7.95,23.68 		"/>
		<path fill-rule="evenodd" clip-rule="evenodd" fill="#FFFFFF" d="M5.75,27.101l1.48-0.25l-1.41-0.4l-0.04,0.739L5.75,27.101z
			 M4.69,25.62l2.92,0.99l-0.03,0.54l-3.05,0.66l0.02-0.46l0.84-0.17l0.04-0.861l-0.81-0.25l0.02-0.359L4.69,25.62z"/>
		<polygon fill-rule="evenodd" clip-rule="evenodd" fill="#FFFFFF" points="4.61,28.53 7.58,28.37 7.6,28.8 4.59,28.96 4.57,28.62 
					"/>
		<polygon fill-rule="evenodd" clip-rule="evenodd" fill="#FFFFFF" points="4.69,29.99 7.64,29.569 7.72,30.189 5.22,31.41 
			7.84,31.04 7.9,31.47 4.91,31.89 4.82,31.26 7.36,30.04 4.71,30.41 4.66,30.08 		"/>
		<path fill-rule="evenodd" clip-rule="evenodd" fill="#FFFFFF" d="M7.15,34.649c0.02,0,0.03-0.01,0.05-0.01
			c0.02-0.01,0.03-0.02,0.05-0.02l0.26-0.101c0.1-0.029,0.21-0.06,0.33-0.089c0.21-0.041,0.43-0.041,0.66,0.009
			c0.23,0.051,0.4,0.23,0.52,0.521L9.04,35c0.1,0.25,0.1,0.48,0.01,0.689c-0.09,0.21-0.24,0.36-0.45,0.44l-0.14,0.06l-0.15-0.379
			h0.02l0.03-0.021c0.13-0.05,0.23-0.13,0.31-0.25c0.08-0.109,0.09-0.24,0.03-0.4c-0.08-0.189-0.21-0.289-0.39-0.31
			c-0.19-0.011-0.38,0.01-0.57,0.069c-0.07,0.021-0.13,0.04-0.19,0.061C7.5,34.98,7.44,35,7.37,35.03
			c-0.08,0.03-0.15,0.06-0.21,0.09c-0.07,0.029-0.14,0.061-0.22,0.1c-0.16,0.091-0.3,0.2-0.41,0.33
			c-0.12,0.12-0.14,0.261-0.07,0.431l0,0l0,0L6.47,36l0.01,0.02c0.1,0.221,0.25,0.32,0.43,0.311c0.18-0.02,0.38-0.07,0.58-0.149
			L7.25,35.58l0.39-0.16l0.41,1l-1.54,0.63L6.38,36.73l0.43-0.17C6.65,36.61,6.52,36.59,6.39,36.5c-0.12-0.08-0.22-0.21-0.29-0.37
			c-0.13-0.34-0.1-0.62,0.09-0.84C6.38,35.061,6.7,34.851,7.15,34.649L7.15,34.649z"/>
		<path fill-rule="evenodd" clip-rule="evenodd" fill="#FFFFFF" d="M9.63,36.66l0.19,0.3L7.95,38c-0.2,0.101-0.3,0.21-0.32,0.33
			c-0.02,0.109,0.01,0.239,0.09,0.38c0.09,0.16,0.19,0.25,0.32,0.271C8.16,39,8.31,38.96,8.49,38.86l1.83-1.01l0.21,0.38l-1.98,1.1
			c-0.04,0.021-0.09,0.04-0.14,0.069c-0.05,0.021-0.09,0.031-0.14,0.04c-0.14,0.03-0.29,0.011-0.44-0.05
			c-0.16-0.06-0.3-0.22-0.44-0.459C7.2,38.58,7.14,38.3,7.23,38.12c0.09-0.189,0.25-0.351,0.51-0.49l1.84-1.02L9.63,36.66z"/>
		<polygon fill-rule="evenodd" clip-rule="evenodd" fill="#FFFFFF" points="8.54,40.58 10.97,38.88 11.22,39.23 8.75,40.96 
			8.55,40.681 		"/>
		<path fill-rule="evenodd" clip-rule="evenodd" fill="#FFFFFF" d="M9.92,41.89l0.31,0.341c0.13,0.159,0.27,0.239,0.41,0.22
			c0.14-0.011,0.27-0.061,0.4-0.131c0.06-0.029,0.11-0.069,0.17-0.109c0.05-0.04,0.1-0.07,0.14-0.109l0.12-0.11
			c0.25-0.2,0.43-0.4,0.55-0.58c0.13-0.19,0.09-0.4-0.11-0.641l-0.26-0.3l-1.73,1.45V41.89z M9.41,41.79l2.28-1.91l0.55,0.66
			c0.26,0.311,0.34,0.59,0.27,0.84c-0.08,0.25-0.21,0.471-0.39,0.66c-0.04,0.04-0.08,0.08-0.13,0.13c-0.05,0.04-0.09,0.08-0.13,0.11
			c-0.06,0.05-0.14,0.109-0.24,0.189c-0.1,0.07-0.21,0.141-0.33,0.211c-0.2,0.109-0.43,0.17-0.67,0.18
			c-0.24,0.02-0.47-0.101-0.68-0.351L9.93,42.5v-0.01c-0.01,0-0.01-0.01-0.01-0.01L9.91,42.47L9.44,41.86L9.41,41.79z"/>
		<polygon fill-rule="evenodd" clip-rule="evenodd" fill="#FFFFFF" points="11.33,43.97 13.32,41.76 14.51,42.83 14.25,43.13 
			13.38,42.34 12.81,42.97 13.62,43.689 13.35,43.99 12.55,43.26 11.88,44 12.73,44.76 12.47,45.061 11.37,44.061 		"/>
		<path fill-rule="evenodd" clip-rule="evenodd" fill="#FFFFFF" d="M21.21,48.21c0.01-0.01,0.01-0.029,0.02-0.04
			c0-0.021,0.01-0.04,0.01-0.05l0.08-0.27c0.03-0.101,0.07-0.211,0.12-0.32c0.08-0.2,0.22-0.37,0.39-0.53
			c0.18-0.149,0.42-0.189,0.73-0.11h0.04c0.27,0.07,0.46,0.2,0.57,0.4c0.12,0.2,0.15,0.399,0.09,0.63l-0.03,0.141l-0.4-0.101
			l0.01-0.021l0.01-0.029c0.03-0.141,0.02-0.271-0.03-0.4c-0.04-0.13-0.14-0.22-0.3-0.26c-0.2-0.05-0.36,0-0.48,0.14
			c-0.12,0.141-0.22,0.3-0.29,0.5c-0.02,0.061-0.04,0.12-0.05,0.18c-0.02,0.061-0.04,0.12-0.06,0.19c-0.02,0.08-0.03,0.15-0.05,0.23
			c-0.01,0.07-0.03,0.149-0.04,0.229c-0.02,0.19-0.02,0.36,0.02,0.53c0.03,0.16,0.13,0.26,0.3,0.311h0.01h0.01h0.01h0.02
			c0.24,0.05,0.41-0.011,0.51-0.161c0.09-0.159,0.16-0.35,0.22-0.56l-0.63-0.15l0.1-0.42l1.05,0.261l-0.4,1.609l-0.33-0.079
			l0.11-0.45c-0.05,0.159-0.14,0.26-0.29,0.31c-0.14,0.05-0.3,0.05-0.47,0.011c-0.35-0.091-0.56-0.271-0.63-0.561
			c-0.07-0.29-0.05-0.67,0.05-1.15V48.21z"/>
		<path fill-rule="evenodd" clip-rule="evenodd" fill="#FFFFFF" d="M24.29,47.36l0.359,0.02l-0.26,2.13
			c-0.029,0.221,0,0.37,0.08,0.45s0.2,0.13,0.36,0.15c0.189,0.029,0.319-0.01,0.41-0.091c0.09-0.089,0.149-0.239,0.17-0.439
			l0.26-2.07l0.43,0.051l-0.28,2.25c0,0.04-0.009,0.089-0.02,0.14c-0.02,0.06-0.03,0.1-0.05,0.14c-0.061,0.141-0.16,0.25-0.3,0.33
			c-0.15,0.09-0.36,0.12-0.631,0.09c-0.399-0.05-0.649-0.17-0.75-0.35c-0.109-0.18-0.139-0.41-0.099-0.7l0.25-2.09L24.29,47.36z"/>
		<polygon fill-rule="evenodd" clip-rule="evenodd" fill="#FFFFFF" points="26.83,50.53 26.83,47.561 27.26,47.561 27.26,50.58 
			26.92,50.58 		"/>
		<path fill-rule="evenodd" clip-rule="evenodd" fill="#FFFFFF" d="M28.7,50.17l0.46-0.06c0.2-0.01,0.34-0.08,0.409-0.211
			c0.061-0.119,0.101-0.25,0.12-0.409c0.011-0.06,0.011-0.13,0.011-0.19c-0.011-0.069-0.011-0.13-0.011-0.18l-0.02-0.16
			c-0.03-0.32-0.08-0.58-0.16-0.79c-0.09-0.21-0.279-0.3-0.6-0.271l-0.391,0.031l0.2,2.259L28.7,50.17z M28.319,50.53l-0.259-2.961
			l0.859-0.079c0.399-0.03,0.68,0.06,0.84,0.27s0.271,0.44,0.32,0.69c0.01,0.06,0.02,0.119,0.03,0.18c0.01,0.07,0.01,0.12,0.02,0.17
			c0,0.08,0.01,0.181,0.01,0.311c0.01,0.12,0,0.25-0.01,0.39c-0.03,0.23-0.11,0.45-0.24,0.649c-0.12,0.211-0.35,0.331-0.68,0.36
			H29.2h-0.011c-0.009,0-0.009,0-0.02,0l0,0l-0.78,0.04L28.319,50.53z"/>
		<path fill-rule="evenodd" clip-rule="evenodd" fill="#FFFFFF" d="M32.12,48.851l-0.62-1.36l-0.03,1.46l0.73-0.16L32.12,48.851z
			 M30.97,50.26l0.2-3.079l0.53-0.111l1.42,2.781l-0.439,0.1l-0.391-0.77l-0.83,0.18l-0.04,0.85l-0.351,0.08L30.97,50.26z"/>
		<path fill-rule="evenodd" clip-rule="evenodd" fill="#FFFFFF" d="M38.42,45.98c0-0.011-0.01-0.021-0.021-0.041
			c-0.01-0.009-0.02-0.029-0.029-0.04l-0.15-0.239c-0.06-0.091-0.109-0.19-0.159-0.29c-0.101-0.2-0.141-0.42-0.141-0.65
			c-0.01-0.229,0.13-0.439,0.391-0.63l0.029-0.021c0.221-0.159,0.45-0.209,0.67-0.17c0.23,0.04,0.4,0.161,0.53,0.341l0.09,0.12
			l-0.33,0.24l-0.02-0.031l-0.011-0.02c-0.089-0.11-0.189-0.189-0.319-0.25c-0.131-0.05-0.261-0.03-0.39,0.07
			c-0.171,0.12-0.241,0.27-0.221,0.449c0.03,0.181,0.091,0.361,0.19,0.541c0.039,0.06,0.069,0.109,0.1,0.159
			c0.04,0.05,0.07,0.11,0.11,0.17c0.05,0.061,0.1,0.13,0.14,0.19c0.04,0.06,0.09,0.12,0.15,0.181c0.119,0.14,0.26,0.25,0.409,0.329
			c0.141,0.091,0.291,0.08,0.431-0.02v-0.01h0.01l0.01-0.021l0.021-0.01c0.189-0.149,0.26-0.311,0.2-0.49
			c-0.061-0.17-0.15-0.35-0.271-0.529l-0.529,0.37l-0.241-0.351l0.881-0.61l0.949,1.35l-0.279,0.2l-0.26-0.38
			c0.09,0.141,0.1,0.28,0.039,0.421c-0.06,0.14-0.159,0.259-0.3,0.359c-0.3,0.21-0.58,0.25-0.84,0.11
			c-0.26-0.141-0.54-0.4-0.829-0.79L38.42,45.98z"/>
		<path fill-rule="evenodd" clip-rule="evenodd" fill="#FFFFFF" d="M39.649,43.28l0.25-0.261l1.44,1.591
			c0.15,0.17,0.28,0.25,0.391,0.24c0.119-0.011,0.229-0.07,0.359-0.181c0.13-0.12,0.2-0.239,0.19-0.37
			c-0.011-0.119-0.08-0.26-0.22-0.41l-1.4-1.55l0.33-0.3l1.51,1.69c0.03,0.029,0.061,0.069,0.1,0.109
			c0.03,0.05,0.05,0.091,0.07,0.13c0.061,0.131,0.08,0.28,0.05,0.45c-0.03,0.16-0.14,0.34-0.35,0.52
			c-0.301,0.271-0.551,0.391-0.75,0.351c-0.21-0.05-0.4-0.17-0.59-0.391l-1.41-1.56L39.649,43.28z"/>
		<polygon fill-rule="evenodd" clip-rule="evenodd" fill="#FFFFFF" points="43.58,43.63 41.439,41.569 41.74,41.26 43.91,43.36 
			43.681,43.601 		"/>
		<path fill-rule="evenodd" clip-rule="evenodd" fill="#FFFFFF" d="M44.45,42.2l0.27-0.37c0.13-0.16,0.17-0.311,0.13-0.44
			c-0.05-0.14-0.119-0.26-0.22-0.37c-0.04-0.05-0.09-0.1-0.14-0.14c-0.051-0.05-0.091-0.08-0.13-0.12l-0.13-0.1
			c-0.261-0.19-0.48-0.33-0.69-0.42c-0.21-0.08-0.41,0-0.601,0.25l-0.25,0.31l1.791,1.4H44.45z M44.46,42.72l-2.35-1.83l0.539-0.68
			c0.24-0.311,0.5-0.46,0.761-0.43c0.26,0.02,0.5,0.1,0.72,0.239c0.051,0.03,0.101,0.061,0.16,0.101c0.05,0.04,0.09,0.069,0.13,0.1
			c0.061,0.05,0.141,0.12,0.24,0.2c0.09,0.08,0.18,0.17,0.271,0.28c0.149,0.17,0.259,0.38,0.319,0.61c0.069,0.239,0,0.489-0.2,0.75
			h-0.01v0.009c-0.01,0.011-0.01,0.011-0.021,0.011v0.01l-0.5,0.591L44.46,42.72z"/>
		<polygon fill-rule="evenodd" clip-rule="evenodd" fill="#FFFFFF" points="46.08,40.59 43.561,39.02 44.41,37.66 44.74,37.87 
			44.12,38.86 44.83,39.311 45.41,38.39 45.74,38.601 45.17,39.51 46.01,40.04 46.62,39.08 46.95,39.28 46.16,40.54 		"/>
		<path fill-rule="evenodd" clip-rule="evenodd" fill="#FFFFFF" d="M47.649,37.09l0.17-0.43c0.08-0.18,0.091-0.341,0.021-0.46
			c-0.08-0.12-0.18-0.22-0.3-0.301c-0.06-0.039-0.109-0.08-0.17-0.109c-0.06-0.021-0.11-0.05-0.16-0.07l-0.149-0.07
			c-0.291-0.13-0.551-0.21-0.771-0.239c-0.221-0.03-0.4,0.1-0.521,0.39l-0.159,0.36l2.07,0.92L47.649,37.09z M47.78,37.59
			l-2.711-1.21l0.351-0.779c0.16-0.37,0.37-0.57,0.63-0.61c0.261-0.04,0.52-0.021,0.761,0.06c0.06,0.02,0.12,0.04,0.18,0.061
			c0.06,0.029,0.109,0.05,0.149,0.07c0.07,0.029,0.171,0.069,0.28,0.13c0.11,0.06,0.22,0.129,0.33,0.209
			c0.189,0.13,0.35,0.3,0.46,0.521c0.12,0.21,0.12,0.47-0.021,0.771l0,0l-0.009,0.009c0,0.011,0,0.021-0.011,0.021v0.011
			l-0.34,0.689L47.78,37.59z"/>
		<polygon fill-rule="evenodd" clip-rule="evenodd" fill="#FFFFFF" points="48.79,35.12 45.95,34.25 46.41,32.71 46.79,32.83 
			46.45,33.95 47.25,34.2 47.569,33.16 47.95,33.28 47.63,34.311 48.58,34.601 48.92,33.51 49.29,33.63 48.86,35.04 		"/>
		<polygon fill-rule="evenodd" clip-rule="evenodd" fill="#FFFFFF" points="49.83,30.73 46.86,30.52 46.91,29.819 49.23,29.42 
			49.6,29.431 49.23,29.39 46.99,28.66 47.04,27.99 50.05,28.2 50.02,28.601 47.28,28.41 49.98,29.23 49.95,29.67 47.16,30.11 
			49.899,30.3 49.88,30.64 		"/>
		<path fill-rule="evenodd" clip-rule="evenodd" fill="#FFFFFF" d="M48.431,27.25c0.039-0.069,0.069-0.1,0.089-0.11h0.091l0.22-0.02
			c0.09-0.01,0.189-0.03,0.29-0.06c0.149-0.03,0.279-0.091,0.41-0.181c0.119-0.09,0.18-0.22,0.159-0.39l0,0c0,0.01,0,0.01,0,0.01
			v-0.02V26.47c0,0.011,0,0.011,0,0h-0.009c-0.011-0.229-0.101-0.38-0.261-0.439c-0.16-0.06-0.34-0.09-0.54-0.08
			c-0.03,0-0.05,0-0.08,0h-0.08l-0.33,0.03c-0.31,0.02-0.56,0.07-0.779,0.15c-0.221,0.08-0.32,0.26-0.3,0.53
			c0.009,0.2,0.109,0.34,0.3,0.4c0.189,0.069,0.39,0.1,0.62,0.1c0.039,0,0.08,0,0.109,0c0.04,0,0.08,0.01,0.141,0.04L48.431,27.25z
			 M48.49,27.58c-0.021,0-0.04,0-0.06,0c-0.021,0-0.051,0-0.081,0c-0.069,0-0.149,0.01-0.239,0.01c-0.091,0-0.18-0.01-0.271-0.01
			c-0.21-0.03-0.409-0.1-0.6-0.229c-0.19-0.12-0.301-0.36-0.33-0.721c-0.03-0.37,0.08-0.63,0.33-0.79c0.25-0.15,0.52-0.25,0.81-0.29
			c0.061-0.01,0.12-0.02,0.19-0.03c0.06,0,0.109-0.01,0.149-0.01l0.08-0.01c0.07,0,0.16-0.01,0.28-0.01c0.11,0,0.21,0,0.3,0.01
			c0.24,0.03,0.46,0.11,0.66,0.24c0.2,0.13,0.31,0.36,0.33,0.69c0.029,0.43-0.101,0.709-0.38,0.869c-0.29,0.15-0.67,0.24-1.16,0.28
			H48.49z"/>
		<polygon fill-rule="evenodd" clip-rule="evenodd" fill="#FFFFFF" points="49.79,24.69 46.88,25.26 46.76,24.64 49.2,23.3 
			46.59,23.81 46.51,23.38 49.47,22.8 49.59,23.43 47.12,24.78 49.76,24.27 49.819,24.6 		"/>
		<polygon fill-rule="evenodd" clip-rule="evenodd" fill="#FFFFFF" points="46.45,23.02 45.91,21.23 46.319,21.11 46.53,21.82 
			49.02,21.11 49.14,21.52 46.649,22.24 46.86,22.98 46.49,23.08 		"/>
		<path fill-rule="evenodd" clip-rule="evenodd" fill="#FFFFFF" d="M47.069,19.23l-1.229,0.86l1.44-0.23L47,19.16L47.069,19.23z
			 M48.66,20.13l-3.07,0.33l-0.2-0.5l2.49-1.89l0.17,0.43l-0.68,0.51l0.319,0.79l0.841-0.11l0.14,0.33L48.66,20.13z"/>
		<path fill-rule="evenodd" clip-rule="evenodd" fill="#FFFFFF" d="M46.42,18.49c-0.01,0-0.03,0.01-0.04,0.02
			c-0.02,0.01-0.04,0.01-0.05,0.02l-0.25,0.13c-0.1,0.05-0.2,0.09-0.311,0.13c-0.209,0.07-0.43,0.09-0.659,0.07
			c-0.23-0.02-0.43-0.17-0.58-0.46l-0.03-0.03c-0.13-0.24-0.16-0.47-0.09-0.69c0.06-0.21,0.189-0.38,0.39-0.49l0.131-0.07
			l0.199,0.35l-0.02,0.02l-0.03,0.01c-0.12,0.07-0.21,0.17-0.28,0.29c-0.06,0.12-0.05,0.25,0.03,0.4
			c0.101,0.18,0.239,0.26,0.42,0.26c0.181-0.01,0.37-0.06,0.561-0.14c0.06-0.03,0.12-0.05,0.17-0.08c0.06-0.03,0.109-0.06,0.18-0.09
			c0.07-0.04,0.14-0.08,0.2-0.12c0.06-0.04,0.13-0.08,0.2-0.13c0.149-0.11,0.279-0.23,0.37-0.37c0.1-0.14,0.1-0.28,0.02-0.43v-0.01
			h-0.011l-0.009-0.02l-0.011-0.01c-0.13-0.21-0.28-0.3-0.46-0.26c-0.19,0.04-0.37,0.12-0.561,0.22l0.311,0.56l-0.37,0.21
			l-0.521-0.94l1.45-0.81l0.161,0.3l-0.4,0.22c0.14-0.07,0.289-0.07,0.42,0c0.13,0.08,0.239,0.19,0.33,0.34
			c0.18,0.32,0.18,0.6,0.02,0.85c-0.17,0.25-0.46,0.49-0.88,0.74V18.49z"/>
		<polygon fill-rule="evenodd" clip-rule="evenodd" fill="#FFFFFF" points="46.29,15.34 43.89,17.08 43.52,16.57 45.16,14.33 
			43.02,15.89 42.76,15.53 45.2,13.76 45.58,14.27 43.91,16.54 46.08,14.96 46.27,15.24 		"/>
		<polygon fill-rule="evenodd" clip-rule="evenodd" fill="#FFFFFF" points="44.66,13.17 42.45,15.16 41.38,13.97 41.681,13.7 
			42.46,14.57 43.08,14.01 42.36,13.21 42.649,12.94 43.38,13.75 44.12,13.08 43.36,12.23 43.649,11.97 44.64,13.07 		"/>
	</g>
	<path fill-rule="evenodd" clip-rule="evenodd" fill="#FFFFFF" d="M17.18,46.78c0-0.17,0.13-0.3,0.3-0.3s0.3,0.13,0.3,0.3
		s-0.13,0.3-0.3,0.3S17.18,46.95,17.18,46.78z"/>
	<path fill-rule="evenodd" clip-rule="evenodd" fill="#FFFFFF" d="M35.3,47.5c0-0.17,0.131-0.3,0.3-0.3c0.17,0,0.3,0.13,0.3,0.3
		s-0.13,0.3-0.3,0.3C35.431,47.8,35.3,47.67,35.3,47.5z"/>
	<path fill-rule="evenodd" clip-rule="evenodd" fill="#FFFFFF" d="M40.939,11.86c0-0.17,0.13-0.3,0.301-0.3c0.17,0,0.3,0.13,0.3,0.3
		s-0.13,0.3-0.3,0.3C41.069,12.16,40.939,12.03,40.939,11.86z"/>
	<path fill-rule="evenodd" clip-rule="evenodd" fill="#FFFFFF" d="M13.34,11.38c0-0.17,0.13-0.3,0.3-0.3s0.3,0.13,0.3,0.3
		s-0.13,0.3-0.3,0.3S13.34,11.55,13.34,11.38z"/>
</g>
<g id="ringe">
	
		<circle fill-rule="evenodd" clip-rule="evenodd" fill="none" stroke="#FFFFFF" stroke-width="0.24" stroke-linecap="round" stroke-linejoin="round" cx="27.32" cy="27.939" r="24.48"/>
	
		<path fill-rule="evenodd" clip-rule="evenodd" fill="none" stroke="#FFFFFF" stroke-width="0.24" stroke-linecap="round" stroke-linejoin="round" d="
		M9.02,27.939C9.02,17.83,17.21,9.64,27.319,9.64c10.111,0,18.301,8.19,18.301,18.299c0,10.11-8.189,18.301-18.301,18.301
		C17.21,46.24,9.02,38.05,9.02,27.939z"/>
</g>
<g id="Text_innen">
	<g>
		<polygon fill-rule="evenodd" clip-rule="evenodd" fill="#FFFFFF" points="22.09,16.46 21.66,15.65 21.28,15.85 20.05,13.54 
			20.43,13.33 20,12.53 18.27,13.44 18.7,14.25 19.08,14.05 20.31,16.37 19.93,16.57 20.36,17.38 		"/>
		<polygon fill-rule="evenodd" clip-rule="evenodd" fill="#FFFFFF" points="26.28,11.77 26.11,10.87 24.28,11.22 24.45,12.12 
			24.79,12.06 24.53,14.16 23.59,12.29 23.92,12.23 23.75,11.33 21.85,11.7 22.03,12.59 22.45,12.51 24.181,15.78 25.38,15.55 
			25.86,11.85 		"/>
		<path fill-rule="evenodd" clip-rule="evenodd" fill="#FFFFFF" d="M30.399,14.35c-0.029,0.18-0.109,0.29-0.239,0.33
			c-0.12,0.03-0.271,0.04-0.45,0l-0.34-0.06l0.16-0.89l0.39,0.07c0.18,0.03,0.311,0.1,0.399,0.19
			C30.399,14.07,30.431,14.19,30.399,14.35z M30.64,12.64c-0.04,0.17-0.109,0.27-0.229,0.29c-0.11,0.03-0.24,0.02-0.391-0.01
			l-0.339-0.06l0.139-0.75l0.33,0.06c0.161,0.02,0.281,0.06,0.381,0.13C30.63,12.37,30.66,12.48,30.64,12.64z M31.47,14.67
			c0.05-0.25,0.021-0.48-0.07-0.69c-0.089-0.21-0.239-0.38-0.46-0.53c0.2-0.06,0.36-0.15,0.48-0.29c0.12-0.14,0.2-0.32,0.24-0.53
			c0.06-0.34,0-0.63-0.18-0.86c-0.181-0.24-0.48-0.4-0.9-0.48l-2.11-0.37l-0.159,0.9l0.43,0.08l-0.46,2.58l-0.42-0.08l-0.16,0.91
			l2.18,0.38c0.45,0.07,0.81,0.01,1.08-0.18C31.24,15.31,31.41,15.03,31.47,14.67z"/>
		<polygon fill-rule="evenodd" clip-rule="evenodd" fill="#FFFFFF" points="37.431,15.15 37.87,14.35 36.24,13.45 35.8,14.25 
			36.1,14.42 34.55,15.85 35.03,13.82 35.33,13.99 35.77,13.19 34.08,12.25 33.64,13.05 34.01,13.26 33.24,16.87 34.311,17.47 
			37.05,14.94 		"/>
	</g>
	<g>
		<polygon fill-rule="evenodd" clip-rule="evenodd" fill="#FFFFFF" points="11.24,22.19 12.08,22.55 12.25,22.15 14.66,23.18 
			14.49,23.57 15.34,23.93 16.1,22.13 15.26,21.77 15.09,22.17 12.68,21.14 12.84,20.75 12,20.39 		"/>
		<polygon fill-rule="evenodd" clip-rule="evenodd" fill="#FFFFFF" points="13.12,28.15 14.57,28.3 14.93,24.9 14.02,24.8 
			13.97,25.23 11.36,24.96 11.41,24.53 10.5,24.43 10.29,26.38 11.2,26.48 11.25,26.05 12.12,26.14 12.01,27.17 12.86,27.26 
			12.97,26.23 13.79,26.319 13.71,27.11 13.23,27.061 		"/>
		<polygon fill-rule="evenodd" clip-rule="evenodd" fill="#FFFFFF" points="11.65,35.52 12.53,35.27 12.41,34.86 14.93,34.14 
			15.05,34.54 15.93,34.29 15.38,32.38 12.51,32.29 14.89,30.67 14.37,28.851 13.49,29.101 13.61,29.52 11.09,30.24 10.97,29.819 
			10.09,30.069 10.6,31.87 11.48,31.61 11.36,31.189 13.26,30.649 10.75,32.38 10.96,33.11 14.04,33.25 12.11,33.8 11.99,33.39 
			11.11,33.64 		"/>
		<path fill-rule="evenodd" clip-rule="evenodd" fill="#FFFFFF" d="M15.84,40.96l1.88-1.641l-1.64-1.889l-0.68,0.6l0.83,0.96
			c-0.21,0.04-0.41,0.029-0.59-0.03c-0.19-0.061-0.35-0.17-0.49-0.33c-0.22-0.26-0.32-0.55-0.3-0.87c0.02-0.329,0.16-0.61,0.43-0.85
			c0.27-0.229,0.56-0.33,0.88-0.3c0.31,0.02,0.58,0.17,0.82,0.43c0.13,0.141,0.21,0.3,0.25,0.46c0.04,0.149,0.04,0.33,0.01,0.51
			l0.79,0.921l1.11-0.971l-0.6-0.68l-0.25,0.21c-0.01-0.13-0.04-0.31-0.1-0.521c-0.06-0.2-0.19-0.43-0.4-0.68
			c-0.27-0.31-0.59-0.53-0.96-0.66c-0.38-0.13-0.76-0.16-1.16-0.1c-0.4,0.07-0.78,0.25-1.12,0.539
			c-0.33,0.291-0.56,0.631-0.69,1.021c-0.12,0.391-0.15,0.78-0.08,1.18c0.08,0.391,0.25,0.75,0.52,1.07
			c0.19,0.221,0.39,0.38,0.61,0.479c0.22,0.111,0.45,0.161,0.69,0.161l-0.35,0.3L15.84,40.96z"/>
		<path fill-rule="evenodd" clip-rule="evenodd" fill="#FFFFFF" d="M20.84,41.649l-0.64-0.31l0.81-0.85L20.84,41.649z M21.75,44.37
			l0.4-0.82l-0.38-0.189l0.26-3.811l-1.53-0.739l-0.4,0.819l0.38,0.189L18.36,41.7l-0.39-0.19l-0.4,0.82l1.77,0.87l0.34-0.72
			L19.3,42.3l0.29-0.31l1.12,0.55l-0.06,0.41l-0.38-0.181l-0.35,0.711L21.75,44.37z"/>
		<path fill-rule="evenodd" clip-rule="evenodd" fill="#FFFFFF" d="M34.01,39.939l-0.329-0.85l-1.721,0.66l0.32,0.86l0.31-0.12
			l0.69,1.8c0.08,0.21,0.09,0.391,0.03,0.521c-0.051,0.14-0.161,0.239-0.33,0.3c-0.161,0.06-0.311,0.06-0.44,0
			c-0.141-0.061-0.25-0.2-0.33-0.41l-0.69-1.801l0.3-0.119l-0.329-0.85l-1.73,0.659l0.33,0.86l0.41-0.16l0.73,1.91
			c0.18,0.449,0.45,0.76,0.81,0.92c0.359,0.17,0.8,0.149,1.31-0.03c0.511-0.21,0.851-0.489,1.011-0.859
			c0.159-0.37,0.159-0.771-0.021-1.221l-0.729-1.909L34.01,39.939z"/>
		<polygon fill-rule="evenodd" clip-rule="evenodd" fill="#FFFFFF" points="38.72,40.78 38.149,40.061 37.811,40.319 36.2,38.26 
			36.54,37.99 35.97,37.27 34.431,38.48 34.99,39.2 35.33,38.931 36.95,41 36.61,41.26 37.17,41.99 		"/>
		<path fill-rule="evenodd" clip-rule="evenodd" fill="#FFFFFF" d="M39.819,36.42l-0.42,0.57L38.7,36.04L39.819,36.42z
			 M42.649,35.99l-0.739-0.54l-0.25,0.35l-3.7-0.92l-1,1.38l0.74,0.54l0.25-0.35l1.48,2.42l-0.25,0.35l0.739,0.53l1.16-1.59
			l-0.641-0.46l-0.25,0.34l-0.259-0.33l0.739-1.01l0.399,0.13l-0.25,0.34l0.641,0.47L42.649,35.99z"/>
		<path fill-rule="evenodd" clip-rule="evenodd" fill="#FFFFFF" d="M44.561,29.64l-2.44-0.56l-0.56,2.43l0.879,0.21l0.291-1.25
			c0.159,0.15,0.27,0.32,0.33,0.511c0.06,0.18,0.06,0.38,0.02,0.58c-0.09,0.329-0.261,0.589-0.54,0.759
			c-0.271,0.171-0.58,0.221-0.94,0.15c-0.34-0.08-0.59-0.26-0.75-0.53c-0.169-0.27-0.21-0.579-0.14-0.92
			c0.04-0.189,0.12-0.35,0.229-0.47c0.101-0.13,0.241-0.23,0.41-0.319l0.271-1.17l-1.431-0.33l-0.199,0.88l0.32,0.079
			c-0.11,0.091-0.23,0.221-0.36,0.391c-0.131,0.17-0.24,0.41-0.32,0.73c-0.09,0.39-0.08,0.779,0.03,1.159
			c0.12,0.381,0.32,0.711,0.609,1c0.28,0.28,0.65,0.48,1.08,0.58c0.44,0.1,0.851,0.08,1.24-0.04c0.38-0.13,0.721-0.329,0.99-0.63
			c0.28-0.29,0.47-0.64,0.569-1.05c0.061-0.28,0.07-0.53,0.031-0.77c-0.041-0.241-0.141-0.46-0.281-0.65l0.461,0.1L44.561,29.64z"/>
		<polygon fill-rule="evenodd" clip-rule="evenodd" fill="#FFFFFF" points="43.21,20.65 42.319,20.89 42.431,21.3 39.899,21.98 
			39.79,21.57 38.899,21.8 39.42,23.72 42.29,23.86 39.88,25.44 40.37,27.27 41.25,27.04 41.14,26.62 43.67,25.94 43.79,26.36 
			44.67,26.12 44.189,24.32 43.3,24.56 43.42,24.98 41.51,25.49 44.05,23.8 43.85,23.07 40.77,22.88 42.71,22.36 42.83,22.77 
			43.71,22.54 		"/>
	</g>
</g>
<g id="kreis_innen">
	<path fill-rule="evenodd" clip-rule="evenodd" fill="#FFFFFF" d="M15.8,28.061c0-6.36,5.16-11.521,11.52-11.521
		c6.361,0,11.521,5.16,11.521,11.521c0,6.359-5.159,11.52-11.521,11.52C20.96,39.58,15.8,34.42,15.8,28.061z"/>
</g>
<g id="berge_innen">
	<path fill-rule="evenodd" clip-rule="evenodd" fill="#003399" d="M19,33.91l3.1-9.87l0.96,0.6l0.12,1.799l2.28-4.919l0.721,0.72
		l1.439-2.88l0.96,3.24l0.96-1.44l0.84,4.8l1.2-2.28l0.601,0.6l0.479,4.68l1.2-1.68l1.2,6.359C30.74,28.73,22.87,29.23,19,33.91z"/>
	<path fill-rule="evenodd" clip-rule="evenodd" fill="#FFFFFF" d="M22.1,27.04l0.24,0.12v4.2c0,0-1.76,0.77-2.4,1.6
		C19.93,32.97,22.1,27.04,22.1,27.04z"/>
	<polygon fill-rule="evenodd" clip-rule="evenodd" fill="#FFFFFF" points="25.58,22.84 25.939,23.32 25.939,27.76 25.819,28.12 
		25.46,28.24 25.22,27.64 24.26,27.52 	"/>
	<polygon fill-rule="evenodd" clip-rule="evenodd" fill="#FFFFFF" points="27.74,22.36 29.061,27.04 27.98,26.2 28.34,30.16 
		25.7,30.28 27.26,25.84 	"/>
	<polygon fill-rule="evenodd" clip-rule="evenodd" fill="#FFFFFF" points="29.54,26.08 30.14,26.561 30.02,28.24 29.54,26.561 	"/>
	<polygon fill-rule="evenodd" clip-rule="evenodd" fill="#FFFFFF" points="31.22,27.16 31.819,27.16 32.061,31.48 30.62,30.76 	"/>
	<polygon fill-rule="evenodd" clip-rule="evenodd" fill="#FFFFFF" points="33.5,29.439 33.5,30.88 33.26,31.601 32.78,31.24 
		32.78,30.04 	"/>
</g>
<g id="weltkugel">
	
		<path fill-rule="evenodd" clip-rule="evenodd" fill="none" stroke="#003399" stroke-width="0.36" stroke-linecap="round" stroke-linejoin="round" d="
		M17.94,35.51c1.92-3.14,5.37-5.229,9.32-5.229c4,0,7.5,2.15,9.4,5.369"/>
	
		<path fill-rule="evenodd" clip-rule="evenodd" fill="none" stroke="#003399" stroke-width="0.36" stroke-linecap="round" stroke-linejoin="round" d="
		M32.74,31.76c-0.93,2.101-3.04,3.56-5.48,3.56c-2.43,0-4.52-1.439-5.46-3.52"/>
	
		<line fill-rule="evenodd" clip-rule="evenodd" fill="none" stroke="#003399" stroke-width="0.36" stroke-linecap="round" stroke-linejoin="round" x1="27.319" y1="30.34" x2="27.319" y2="39.819"/>
	
		<path fill-rule="evenodd" clip-rule="evenodd" fill="none" stroke="#003399" stroke-width="0.36" stroke-linecap="round" stroke-linejoin="round" d="
		M27.23,30.46c-3.021,3.101-4.141,7.56-4.23,8.43"/>
	
		<path fill-rule="evenodd" clip-rule="evenodd" fill="none" stroke="#003399" stroke-width="0.36" stroke-linecap="round" stroke-linejoin="round" d="
		M27.319,30.46c3.021,3.101,4.15,7.56,4.23,8.43"/>
	
		<path fill-rule="evenodd" clip-rule="evenodd" fill="none" stroke="#003399" stroke-width="0.36" stroke-linecap="round" stroke-linejoin="round" d="
		M27.23,30.46c-4.581,1.101-7.26,5.76-7.351,6.63"/>
	
		<path fill-rule="evenodd" clip-rule="evenodd" fill="none" stroke="#003399" stroke-width="0.36" stroke-linecap="round" stroke-linejoin="round" d="
		M27.319,30.46c4.58,1.101,7.271,5.76,7.351,6.63"/>
</g>
<g id="Hintergrund" display="none">
	<g display="inline">
		
			<polyline fill-rule="evenodd" clip-rule="evenodd" fill="none" stroke="#000000" stroke-width="0.36" stroke-linecap="round" stroke-linejoin="round" points="
			-14.5,-10.04 62.3,-10.04 62.3,61 -14.5,61 -14.5,-10.04 		"/>
		
			<line fill-rule="evenodd" clip-rule="evenodd" fill="none" stroke="#000000" stroke-width="0.36" stroke-linecap="round" stroke-linejoin="round" x1="-14.5" y1="-10.04" x2="62.3" y2="61"/>
		
			<line fill-rule="evenodd" clip-rule="evenodd" fill="none" stroke="#000000" stroke-width="0.36" stroke-linecap="round" stroke-linejoin="round" x1="62.3" y1="-10.04" x2="-14.5" y2="61"/>
	</g>
</g>
</svg>
